<svg id="visual" viewBox="0 0 900 600" width="900" height="600" xmlns="http://www.w3.org/2000/svg" xmlns:xlink="http://www.w3.org/1999/xlink" version="1.1"><rect x="0" y="0" width="900" height="600" fill="#001220"></rect><path d="M0 312L25 325.8C50 339.7 100 367.3 150 376.3C200 385.3 250 375.7 300 367.2C350 358.7 400 351.3 450 341C500 330.7 550 317.3 600 320.2C650 323 700 342 750 343C800 344 850 327 875 318.5L900 310L900 601L875 601C850 601 800 601 750 601C700 601 650 601 600 601C550 601 500 601 450 601C400 601 350 601 300 601C250 601 200 601 150 601C100 601 50 601 25 601L0 601Z" fill="#fa7268"></path><path d="M0 387L25 390.2C50 393.3 100 399.7 150 390.2C200 380.7 250 355.3 300 351.7C350 348 400 366 450 367.8C500 369.7 550 355.3 600 364C650 372.7 700 404.3 750 402.2C800 400 850 364 875 346L900 328L900 601L875 601C850 601 800 601 750 601C700 601 650 601 600 601C550 601 500 601 450 601C400 601 350 601 300 601C250 601 200 601 150 601C100 601 50 601 25 601L0 601Z" fill="#ef5f67"></path><path d="M0 488L25 484C50 480 100 472 150 469.2C200 466.3 250 468.7 300 458.5C350 448.3 400 425.7 450 413.8C500 402 550 401 600 414.5C650 428 700 456 750 455.5C800 455 850 426 875 411.5L900 397L900 601L875 601C850 601 800 601 750 601C700 601 650 601 600 601C550 601 500 601 450 601C400 601 350 601 300 601C250 601 200 601 150 601C100 601 50 601 25 601L0 601Z" fill="#e34c67"></path><path d="M0 496L25 488.5C50 481 100 466 150 463.2C200 460.3 250 469.7 300 481.7C350 493.7 400 508.3 450 512.7C500 517 550 511 600 513C650 515 700 525 750 517.3C800 509.7 850 484.3 875 471.7L900 459L900 601L875 601C850 601 800 601 750 601C700 601 650 601 600 601C550 601 500 601 450 601C400 601 350 601 300 601C250 601 200 601 150 601C100 601 50 601 25 601L0 601Z" fill="#d53867"></path><path d="M0 573L25 564.7C50 556.3 100 539.7 150 527.2C200 514.7 250 506.3 300 508.2C350 510 400 522 450 530.7C500 539.3 550 544.7 600 541.5C650 538.3 700 526.7 750 523.7C800 520.7 850 526.3 875 529.2L900 532L900 601L875 601C850 601 800 601 750 601C700 601 650 601 600 601C550 601 500 601 450 601C400 601 350 601 300 601C250 601 200 601 150 601C100 601 50 601 25 601L0 601Z" fill="#c62368"></path></svg>